<?xml version="1.0"?>
<svg xmlns="http://www.w3.org/2000/svg" xmlns:xlink="http://www.w3.org/1999/xlink" version="1.1" id="Capa_1" x="0px" y="0px" viewBox="0 0 488.437 488.437" style="enable-background:new 0 0 488.437 488.437;" xml:space="preserve" width="96px" height="96px" class=""><g><g>
	<path d="M139.759,300.003c22.405,0,37.655-15.249,37.655-40.4c0-21.169-12.853-38.806-36.417-38.806   c-22.645,0-37.323,17.177-37.323,40.171C103.674,282.818,116.987,300.003,139.759,300.003z M140.552,234.563   c11.949,0,18.55,11.838,18.55,25.602c0,14.908-6.713,26.064-18.439,26.064c-11.616,0-18.662-10.583-18.662-25.603   C122.001,245.718,128.824,234.563,140.552,234.563z" data-original="#000000" class="active-path" data-old_color="#000000" fill="#FFA300"/>
	<path d="M205.93,290.156v-18.835c1.603,0.229,3.649,0.341,5.918,0.341c10.251,0,19.01-2.499,24.929-8.078   c4.555-4.324,7.063-10.703,7.063-18.209c0-7.514-3.303-13.885-8.205-17.757c-5.125-4.093-12.742-6.141-23.436-6.141   c-7.839,0-14.012,0.372-18.853,0.936c-2.617,0.309-4.602,2.54-4.602,5.182v62.559c0,4.745,3.841,8.594,8.6,8.594   C202.088,298.751,205.93,294.901,205.93,290.156z M205.93,235.246c1.253-0.341,3.649-0.683,7.172-0.683   c8.647,0,13.55,4.212,13.55,11.266c0,7.855-5.695,12.52-14.914,12.52c-2.508,0-4.316-0.111-5.808-0.452V235.246z" data-original="#000000" class="active-path" data-old_color="#000000" fill="#FFA300"/>
	<path d="M295.076,236.268c3.92,0,7.109-3.181,7.109-7.109c0-3.934-3.189-7.115-7.109-7.115h-35.021   c-2.887,0-5.221,2.332-5.221,5.212v66.282c0,2.879,2.334,5.213,5.221,5.213h36.608c3.92,0,7.108-3.182,7.108-7.117   c0-3.928-3.189-7.109-7.108-7.109h-24.405v-18.208h21.151c3.905,0,7.063-3.159,7.063-7.054c0-3.905-3.157-7.062-7.063-7.062   h-21.151v-15.932H295.076z" data-original="#000000" class="active-path" data-old_color="#000000" fill="#FFA300"/>
	<path d="M351.772,250.153l-14.678-25.896c-0.776-1.373-2.221-2.213-3.792-2.213h-13.36c-2.413,0-4.364,1.951-4.364,4.354v64.385   c0,4.404,3.57,7.967,7.965,7.967c4.396,0,7.967-3.564,7.967-7.967v-15.138c0-12.52-0.222-23.327-0.683-33.458l0.35-0.11   c3.761,8.989,8.759,18.891,13.313,27.087l15.153,27.34c0.763,1.388,2.222,2.246,3.809,2.246h11.268   c2.411,0,4.363-1.954,4.363-4.357v-64.386c0-4.403-3.57-7.965-7.966-7.965c-4.396,0-7.967,3.561-7.967,7.965v14.455   c0,11.498,0.35,21.852,1.478,31.983h-0.335C360.882,267.791,356.327,258.238,351.772,250.153z" data-original="#000000" class="active-path" data-old_color="#000000" fill="#FFA300"/>
	<path d="M453.663,415.952V191.497h-0.016c-12.711,0-24.755-4.15-34.783-11.148c-5.22,3.666-11.187,6.349-17.55,8.26v135.507v7.855   c0,10.425-8.458,18.883-18.883,18.883H106.006c-10.425,0-18.883-8.458-18.883-18.883v-7.855V188.608   c-6.378-1.911-12.33-4.586-17.549-8.26c-10.029,6.998-22.073,11.148-34.784,11.148h-0.016v224.455   c-8.982,0-16.249,7.276-16.249,16.249c0,8.974,7.267,16.249,16.249,16.249h52.349v20.622c0,10.425,8.458,18.883,18.883,18.883h14.6   c10.426,0,18.883-8.458,18.883-18.883V448.45h209.461v20.622c0,10.425,8.457,18.883,18.883,18.883h14.6   c10.425,0,18.883-8.458,18.883-18.883V448.45h52.349c8.982,0,16.248-7.275,16.248-16.249   C469.911,423.228,462.645,415.952,453.663,415.952z M87.123,382.336h314.191c4.489,0,8.125,3.633,8.125,8.124   c0,4.491-3.636,8.125-8.125,8.125H87.123c-4.489,0-8.124-3.633-8.124-8.125C78.999,385.969,82.634,382.336,87.123,382.336z" data-original="#000000" class="active-path" data-old_color="#000000" fill="#FFA300"/>
	<path d="M488.065,125.397H0.372c-2.476,16.86,7.6,33.418,24.404,38.449c3.333,0.991,6.697,1.467,10.014,1.467   c15.026,0,28.911-9.79,33.434-24.928l1.826-6.118c1.253,11.124,7.759,21.018,17.455,26.507c3.126,1.77,6.537,3.118,10.25,3.857   c2.301,0.46,4.602,0.681,6.855,0.681c16.313,0,30.896-11.496,34.195-28.101l0.873-4.34c0.825,11.868,7.695,22.247,17.773,27.903   c4.046,2.278,8.552,3.864,13.486,4.356c1.175,0.119,2.35,0.175,3.509,0.175c17.708,0,32.894-13.441,34.686-31.451l0.254-2.61   c0.318,12.718,7.475,23.636,17.883,29.491c5.031,2.824,10.759,4.57,16.948,4.57c6.189,0,11.917-1.747,16.948-4.57   c10.408-5.855,17.564-16.773,17.883-29.491l0.254,2.61c1.792,18.01,16.963,31.451,34.686,31.451c1.159,0,2.334-0.057,3.509-0.175   c4.918-0.492,9.44-2.078,13.486-4.348c10.062-5.656,16.948-16.043,17.773-27.911l0.873,4.34   c3.3,16.605,17.883,28.101,34.195,28.101c2.254,0,4.555-0.221,6.855-0.681c3.713-0.739,7.124-2.088,10.235-3.85   c9.71-5.497,16.217-15.383,17.472-26.515l1.824,6.118c4.521,15.138,18.407,24.928,33.434,24.928c3.316,0,6.681-0.476,10.014-1.467   C480.466,158.815,490.541,142.257,488.065,125.397z" data-original="#000000" class="active-path" data-old_color="#000000" fill="#FFA300"/>
	<path d="M458.37,24.162c-4.195-14.051-17.119-23.679-31.783-23.679H61.852c-14.664,0-27.588,9.628-31.783,23.679L4.69,109.151   h479.059L458.37,24.162z" data-original="#000000" class="active-path" data-old_color="#000000" fill="#FFA300"/>
</g></g> </svg>
