<?xml version="1.0" encoding="iso-8859-1"?>
<!-- Generator: Adobe Illustrator 16.0.0, SVG Export Plug-In . SVG Version: 6.00 Build 0)  -->
<!DOCTYPE svg PUBLIC "-//W3C//DTD SVG 1.1//EN" "http://www.w3.org/Graphics/SVG/1.1/DTD/svg11.dtd">
<svg xmlns="http://www.w3.org/2000/svg" xmlns:xlink="http://www.w3.org/1999/xlink" version="1.1" id="Capa_1" x="0px" y="0px" width="96px" height="96px" viewBox="0 0 418.142 418.142" style="enable-background:new 0 0 418.142 418.142;" xml:space="preserve">
<g>
	<g>
		<g>
			<path d="M306.567,262.986c-3.684-1.938-8.24-0.521-10.178,3.164l-14.632,27.825c-1.937,3.687-0.521,8.242,3.163,10.181     c3.686,1.938,8.242,0.521,10.18-3.164l14.633-27.826C311.669,269.48,310.253,264.924,306.567,262.986z" fill="#827C82"/>
			<path d="M398.146,179.963c-5.422-9.771-15.736-15.842-26.914-15.842c-5.207,0-10.367,1.336-14.938,3.871     c-7.184,3.99-12.385,10.539-14.645,18.441c-1.004,3.506-1.375,7.094-1.129,10.627c-2.232-0.207-4.412-0.312-6.523-0.312     c-11.439,0-21.57,2.988-30.119,8.883c-4.299,2.967-8.062,6.586-11.279,10.834c-0.244-0.024-0.492-0.043-0.736-0.063V109.136     c0-28.768-23.404-52.174-52.174-52.174H57.729c-6.111,0-11.086-4.975-11.086-11.088c0-6.115,4.975-11.09,11.086-11.09h198.445     c9.588,0,17.391-7.803,17.391-17.391C273.565,7.801,265.763,0,256.175,0H57.729C32.437,0,11.86,20.578,11.86,45.873v262.391     c0,28.771,23.406,52.178,52.174,52.178h124.84c0.367,3.645,1.326,7.225,2.889,10.627c7.207,15.711,20.021,29.016,36.085,37.461     c11.961,6.289,25.201,9.612,38.292,9.612c4.391,0,8.771-0.375,13.018-1.114c7.109-1.236,13.506-4.646,18.488-9.843     c16.006-16.674,30.217-31.888,42.069-49.222c14.116-20.648,22.995-41.438,27.938-65.43c1.451-7.058,0.631-14.248-2.371-20.789     c-1.932-4.211-4.027-8.197-6.287-11.957c15.363-1.813,28.746-9.113,37.467-20.65C408.931,222.643,409.56,200.52,398.146,179.963z      M86.644,292.479c0,7.685-6.229,13.914-13.912,13.914c-7.686,0-13.912-6.229-13.912-13.914V111.443     c0-7.684,6.227-13.914,13.912-13.914c7.684,0,13.912,6.23,13.912,13.914V292.479z M378.714,224.066     c-7.084,9.371-20.768,13.301-34.891,10.03c-7.734-1.461-13.293-0.933-16.99,1.619c-3.604,2.485-6.146,7.34-7.758,14.78     c10.563,6.888,19.188,17.515,25.68,31.673c0.768,1.666,0.979,3.532,0.607,5.327c-4.25,20.627-11.904,38.535-24.09,56.354     c-10.771,15.753-24.246,30.163-39.469,46.021c-1.271,1.324-2.93,2.207-4.736,2.521c-11.617,2.024-24.188-0.104-35.389-5.993     c-11.205-5.892-20.082-15.037-24.998-25.759c-0.767-1.664-0.979-3.532-0.605-5.328c4.437-21.53,8.668-40.803,15.539-58.604     c7.773-20.14,18.188-36.597,32.771-51.789c1.27-1.324,2.93-2.207,4.734-2.521c14.793-2.58,28-1.656,39.379,2.713     c2.377-8.877,6.252-15.097,11.773-18.906c6.393-4.41,14.842-5.535,25.828-3.438c0.08,0.017,0.158,0.033,0.234,0.052     c9.57,2.243,18.877-0.056,23.16-5.722c4.602-6.088,1.934-13.908-1.115-19.4c-1.549-2.789-0.539-6.305,2.246-7.854     c2.791-1.549,6.309-0.539,7.854,2.248C385.048,203.92,385.132,215.574,378.714,224.066z" fill="#827C82"/>
		</g>
	</g>
</g>
<g>
</g>
<g>
</g>
<g>
</g>
<g>
</g>
<g>
</g>
<g>
</g>
<g>
</g>
<g>
</g>
<g>
</g>
<g>
</g>
<g>
</g>
<g>
</g>
<g>
</g>
<g>
</g>
<g>
</g>
</svg>
