<?xml version="1.0" encoding="iso-8859-1"?>
<!-- Generator: Adobe Illustrator 19.0.0, SVG Export Plug-In . SVG Version: 6.00 Build 0)  -->
<svg version="1.1" id="Layer_1" xmlns="http://www.w3.org/2000/svg" xmlns:xlink="http://www.w3.org/1999/xlink" x="0px" y="0px"
	 viewBox="0 0 496 496" style="enable-background:new 0 0 496 496;" xml:space="preserve">
<g>
	<g>
		<g>
			<path d="M448,336.64V296c0-13.232-10.768-24-24-24h-56v-40c0-22.056-17.944-40-40-40h-8c0-2.736-0.264-5.4-0.648-8.032
				c-0.08-0.544-0.152-1.096-0.248-1.632c-0.464-2.632-1.08-5.208-1.896-7.704c-0.032-0.088-0.04-0.184-0.064-0.272
				C324.176,165.8,328,155.2,328,144c0-21.016-13.712-39.384-33.328-45.664C288.232,64.712,258.784,40,224,40
				c-2.88,0-5.704,0.216-8.496,0.544c-0.848,0.104-1.68,0.256-2.528,0.384c-2.008,0.312-3.984,0.696-5.936,1.168
				c-0.88,0.216-1.752,0.432-2.616,0.672c-2.168,0.616-4.296,1.336-6.376,2.144c-0.52,0.2-1.048,0.36-1.56,0.568
				c-2.6,1.08-5.112,2.32-7.552,3.68c-0.16,0.088-0.328,0.144-0.488,0.24C180.224,43.304,170.328,40,160,40
				c-13.752,0-26.824,5.992-35.888,16.24c-1.4-0.16-2.76-0.24-4.112-0.24c-22.056,0-40,17.944-40,40c0,0.216,0,0.448,0.008,0.664
				C57.328,100.488,40,120.256,40,144c0,6.504,1.384,12.888,4.112,19.04C41.384,169.744,40,176.776,40,184
				c0,2.72,0.264,5.376,0.64,8H40c-22.056,0-40,17.944-40,40v176c0,22.056,17.944,40,40,40h72v32H80v16h208v-16h-32v-32h72
				c22.056,0,40-17.944,40-40V288h56c4.416,0,8,3.584,8,8v40.64c-27.088,3.904-48,27.208-48,55.36v48c0,30.872,25.128,56,56,56
				s56-25.128,56-56v-48C496,363.848,475.088,340.544,448,336.64z M59.984,159.08C57.336,154.184,56,149.12,56,144
				c0-17.648,14.352-32,31.448-32.024L88,111.992V112c17.648,0,32,14.352,32,32h16c0-23.72-17.304-43.416-39.944-47.272
				C96.048,96.496,96,96.232,96,96c0-13.232,10.768-24,24-24c1.688,0,3.504,0.232,5.536,0.728l5.256,1.256l3.128-4.416
				C139.952,61.072,149.696,56,160,56c5.176,0,10.12,1.384,14.624,3.736C160.728,72.872,152,91.416,152,112h16
				c0-19.184,9.712-36.136,24.456-46.232c2.064-1.416,4.224-2.64,6.432-3.752c0.504-0.256,1.016-0.496,1.536-0.736
				c2.272-1.064,4.584-2.016,6.968-2.76c0.008,0,0.016,0,0.024-0.008c2.36-0.736,4.784-1.248,7.232-1.664
				c0.608-0.104,1.216-0.2,1.832-0.28C218.96,56.232,221.464,56,224,56c28.512,0,52.424,21.352,55.608,49.664l0.664,5.848
				l5.784,1.112C301.088,115.504,312,128.704,312,144c0,5.024-1.28,9.808-3.472,14.176C298.288,144.736,282.16,136,264,136
				c-30.872,0-56,25.128-56,56h16c0-22.056,17.944-40,40-40c16.384,0,30.464,9.92,36.64,24.056c0.976,2.232,1.672,4.528,2.224,6.864
				c0.072,0.312,0.216,0.584,0.28,0.896c0.568,2.68,0.856,5.416,0.856,8.184c0,22.056-17.944,40-40,40
				c-7.296,0-14.496-2.032-20.792-5.88l-6-3.664l-4.408,5.48C226.632,235.6,217.592,240,208,240c-9.76,0-18.88-4.608-24.904-12.256
				C188.68,219.904,192,210.336,192,200c0-26.472-21.528-48-48-48v16c17.648,0,32,14.352,32,32c0,8.416-3.328,16.024-8.656,21.736
				l-0.048,0.048c-3.056,3.272-6.64,5.808-10.56,7.536c-0.024,0.016-0.048,0.032-0.08,0.04c-1.8,0.792-3.688,1.352-5.608,1.792
				c-0.192,0.04-0.368,0.136-0.56,0.176c-2.104,0.448-4.28,0.672-6.488,0.672c-8.664,0-16.792-3.448-22.88-9.696l-3.872-3.976
				l-5.088,2.24C107.016,222.84,101.576,224,96,224c-22.056,0-40-17.944-40-40c0-6.096,1.392-12.016,4.128-17.592l1.824-3.704
				L59.984,159.08z M248,336c0,4.416-3.584,8-8,8s-8-3.584-8-8c0-4.416,3.584-8,8-8S248,331.584,248,336z M136,336
				c0,4.416-3.584,8-8,8s-8-3.584-8-8c0-4.416,3.584-8,8-8S136,331.584,136,336z M240,480H128v-32h112V480z M328,432H40
				c-13.232,0-24-10.768-24-24h336C352,421.232,341.232,432,328,432z M352,392H16V232c0-13.232,10.768-24,24-24h5.48
				c9.008,18.888,28.24,32,50.52,32c6.04,0,11.952-0.96,17.64-2.856c2.008,1.648,4.144,3.088,6.36,4.376v71.96
				c-9.288,3.312-16,12.112-16,22.528c0,13.232,10.768,24,24,24s24-10.768,24-24c0-10.416-6.712-19.216-16-22.528v-66.16
				c2.616,0.432,5.288,0.68,8,0.68c2.248,0,4.448-0.208,6.616-0.512c0.536-0.072,1.064-0.152,1.592-0.248
				c2.136-0.368,4.232-0.84,6.256-1.48c0.192-0.064,0.376-0.144,0.568-0.208c2-0.664,3.928-1.472,5.8-2.376
				c0.288-0.144,0.584-0.272,0.88-0.424c2.088-1.064,4.088-2.272,5.984-3.616C180.72,249.712,193.936,256,208,256
				c8.568,0,16.768-2.432,24-6.696v64.168c-9.288,3.312-16,12.112-16,22.528c0,13.232,10.768,24,24,24s24-10.768,24-24
				c0-10.416-6.712-19.216-16-22.528v-67.904c5.184,1.568,10.56,2.432,16,2.432c25.312,0,46.736-16.904,53.64-40H328
				c13.232,0,24,10.768,24,24V392z M480,440c0,22.056-17.944,40-40,40c-22.056,0-40-17.944-40-40v-32h80V440z M448,392v-24h-16v24
				h-32c0-22.056,17.944-40,40-40c22.056,0,40,17.944,40,40H448z"/>
			<rect x="176" width="16" height="24"/>
			<rect x="86.002" y="27.047" transform="matrix(0.4999 0.8661 -0.8661 0.4999 79.366 -67.351)" width="24" height="16"/>
			<rect x="23.042" y="90" transform="matrix(0.8661 0.4999 -0.4999 0.8661 53.6822 -4.3939)" width="24" height="16"/>
			<rect y="176" width="24" height="16"/>
			<rect x="344" y="176" width="24" height="16"/>
			<rect x="324.967" y="86.001" transform="matrix(0.4999 0.8661 -0.8661 0.4999 251.3961 -239.3675)" width="16" height="24"/>
			<rect x="261.993" y="23.036" transform="matrix(0.8661 0.4999 -0.4999 0.8661 53.6698 -130.276)" width="16" height="24"/>
		</g>
	</g>
</g>
<g>
</g>
<g>
</g>
<g>
</g>
<g>
</g>
<g>
</g>
<g>
</g>
<g>
</g>
<g>
</g>
<g>
</g>
<g>
</g>
<g>
</g>
<g>
</g>
<g>
</g>
<g>
</g>
<g>
</g>
</svg>
