<?xml version="1.0" encoding="iso-8859-1"?>
<!-- Generator: Adobe Illustrator 19.0.0, SVG Export Plug-In . SVG Version: 6.00 Build 0)  -->
<svg version="1.1" id="Capa_1" xmlns="http://www.w3.org/2000/svg" xmlns:xlink="http://www.w3.org/1999/xlink" x="0px" y="0px"
	 viewBox="0 0 496.485 496.485" style="enable-background:new 0 0 496.485 496.485;" xml:space="preserve">
<path style="fill:#E1E6E9;" d="M449.939,7.758H46.545c-21.721,0-38.788,17.067-38.788,38.788v321.164
	c0,21.721,17.067,38.788,38.788,38.788h403.394c21.721,0,38.788-17.067,38.788-38.788V46.545
	C488.727,24.824,471.661,7.758,449.939,7.758z"/>
<path style="fill:#193651;" d="M449.939,414.255H46.545C20.945,414.255,0,393.309,0,367.709V46.545C0,20.945,20.945,0,46.545,0
	h403.394c25.6,0,46.545,20.945,46.545,46.545v321.164C496.485,393.309,475.539,414.255,449.939,414.255z M46.545,15.515
	c-17.067,0-31.03,13.964-31.03,31.03v321.164c0,17.067,13.964,31.03,31.03,31.03h403.394c17.067,0,31.03-13.964,31.03-31.03V46.545
	c0-17.067-13.964-31.03-31.03-31.03H46.545z"/>
<g>
	<path style="fill:#FDBF5E;" d="M223.418,62.061H37.236v297.891h186.958c13.188,0,23.273,10.085,23.273,23.273l0,0V85.333
		C247.467,72.921,236.606,62.061,223.418,62.061z"/>
	<path style="fill:#FDBF5E;" d="M270.739,68.267h186.958v297.891H270.739c-13.188,0-23.273,10.085-23.273,23.273l0,0V91.539
		C246.691,78.352,257.552,68.267,270.739,68.267z"/>
</g>
<g>
	<path style="fill:#FFFFFF;" d="M223.418,38.788H37.236v297.891h186.958c13.188,0,23.273,10.085,23.273,23.273l0,0V62.061
		C247.467,49.648,236.606,38.788,223.418,38.788z"/>
	<path style="fill:#FFFFFF;" d="M270.739,44.994h186.958v297.891H270.739c-13.188,0-23.273,10.085-23.273,23.273l0,0V68.267
		C246.691,55.079,257.552,44.994,270.739,44.994z"/>
</g>
<polygon style="fill:#CFD0D1;" points="304.097,406.497 192.388,406.497 171.442,488.727 325.042,488.727 "/>
<g>
	<path style="fill:#193651;" d="M325.042,496.485L325.042,496.485h-153.6c-2.327,0-4.655-0.776-6.206-3.103
		c-1.552-1.552-2.327-4.655-1.552-6.982l21.721-82.23c0.776-3.103,3.879-5.43,7.758-5.43h110.933c3.879,0,6.982,2.327,7.758,5.43
		l20.945,80.679c0.776,0.776,0.776,2.327,0.776,3.103C332.8,493.382,329.697,496.485,325.042,496.485z M181.527,480.97h134.206
		l-17.067-66.715H198.594L181.527,480.97z"/>
	<path style="fill:#193651;" d="M350.642,496.485h-204.8c-4.655,0-7.758-3.103-7.758-7.758s3.103-7.758,7.758-7.758h205.576
		c4.655,0,7.758,3.103,7.758,7.758C358.4,493.382,355.297,496.485,350.642,496.485z"/>
	<path style="fill:#193651;" d="M70.594,111.709l-5.43,13.188H55.079l24.824-56.63h10.085l24.824,56.63h-10.085l-5.43-13.188
		C99.297,111.709,70.594,111.709,70.594,111.709z M95.418,102.4L85.333,79.127L75.248,102.4H95.418z"/>
	<path style="fill:#193651;" d="M148.17,124.897h-24.824V67.491h22.497c3.879,0,6.982,0.776,10.085,1.552s4.655,2.327,6.206,3.879
		c2.327,3.103,3.879,6.206,3.879,10.085c0,4.655-1.552,7.758-3.879,10.085c-0.776,0.776-1.552,1.552-2.327,1.552
		c0,0-0.776,0.776-2.327,0.776c3.879,0.776,6.206,2.327,8.533,4.655c2.327,2.327,3.103,5.43,3.103,9.309
		c0,3.879-1.552,7.758-3.879,10.861C161.358,122.57,155.927,124.897,148.17,124.897z M132.655,91.539h12.412
		c6.982,0,10.085-2.327,10.085-6.982c0-2.327-0.776-4.655-2.327-6.206s-4.655-1.552-7.758-1.552h-12.412V91.539z M132.655,115.588
		h14.739c3.879,0,6.206-0.776,7.758-1.552c1.552-0.776,3.103-3.103,3.103-6.206c0-4.655-3.879-7.758-12.412-7.758h-13.964v15.515
		H132.655z"/>
	<path style="fill:#193651;" d="M206.352,115.588c3.103,0,6.206-0.776,8.533-1.552c2.327-0.776,4.655-3.103,7.758-5.43l6.206,6.206
		c-6.206,6.982-13.188,10.085-21.721,10.085c-8.533,0-15.515-3.103-21.721-8.533c-5.43-5.43-8.533-12.412-8.533-20.945
		s3.103-15.515,8.533-20.945c5.43-5.43,13.188-8.533,21.721-8.533s16.291,3.103,21.721,10.085l-6.206,6.982
		c-2.327-2.327-5.43-4.655-7.758-5.43s-5.43-1.552-8.533-1.552c-5.43,0-10.861,1.552-14.739,5.43
		c-3.879,3.879-6.206,8.533-6.206,13.964c0,5.43,1.552,10.861,5.43,14.739C196.267,114.036,200.921,115.588,206.352,115.588z"/>
</g>
<g>
	<rect x="55.079" y="162.133" style="fill:#E1E6E9;" width="174.545" height="11.636"/>
	<rect x="55.079" y="195.491" style="fill:#E1E6E9;" width="174.545" height="11.636"/>
	<rect x="55.079" y="228.073" style="fill:#E1E6E9;" width="174.545" height="11.636"/>
	<rect x="55.079" y="261.43" style="fill:#E1E6E9;" width="174.545" height="11.636"/>
	<rect x="55.079" y="294.012" style="fill:#E1E6E9;" width="87.661" height="11.636"/>
</g>
<polygon style="fill:#193651;" points="395.636,256 352.194,175.321 307.976,256 338.23,245.139 338.23,293.236 365.382,293.236 
	365.382,245.139 "/>
<polygon style="fill:#F16051;" points="217.212,390.206 197.042,375.467 177.648,390.206 177.648,336.679 217.212,336.679 "/>
<g>
	<rect x="296.339" y="76.024" style="fill:#193651;" width="15.515" height="15.515"/>
	<rect x="344.436" y="76.024" style="fill:#193651;" width="15.515" height="15.515"/>
	<rect x="392.533" y="76.024" style="fill:#193651;" width="15.515" height="15.515"/>
	<rect x="345.988" y="128" style="fill:#193651;" width="11.636" height="19.394"/>
	
		<rect x="318.727" y="132.837" transform="matrix(-0.9397 0.342 -0.342 -0.9397 678.266 165.4785)" style="fill:#193651;" width="11.636" height="19.394"/>
	
		<rect x="295.568" y="146.752" transform="matrix(-0.7659 0.643 -0.643 -0.7659 632.8059 82.4836)" style="fill:#193651;" width="11.637" height="19.394"/>
	
		<rect x="277.985" y="167.979" transform="matrix(-0.5003 0.8659 -0.8659 -0.5003 579.6274 20.8295)" style="fill:#193651;" width="11.637" height="19.395"/>
	
		<rect x="268.827" y="193.616" transform="matrix(-0.1749 0.9846 -0.9846 -0.1749 522.8596 -31.5401)" style="fill:#193651;" width="11.637" height="19.394"/>
	
		<rect x="423.324" y="220.24" transform="matrix(-0.1729 0.9849 -0.9849 -0.1729 729.817 -152.9843)" style="fill:#193651;" width="11.636" height="19.393"/>
	
		<rect x="264.52" y="224.278" transform="matrix(-0.9848 0.1736 -0.1736 -0.9848 584.216 409.0925)" style="fill:#193651;" width="19.394" height="11.636"/>
	
		<rect x="419.69" y="197.021" transform="matrix(-0.9846 0.1749 -0.1749 -0.9846 887.6331 327.4536)" style="fill:#193651;" width="19.394" height="11.637"/>
	
		<rect x="410.36" y="171.357" transform="matrix(-0.8661 0.4999 -0.4999 -0.8661 872.4326 120.6409)" style="fill:#193651;" width="19.394" height="11.637"/>
	<polygon style="fill:#193651;" points="404.17,145.067 391.758,159.806 400.291,167.564 413.479,152.824 	"/>
	
		<rect x="368.763" y="136.627" transform="matrix(-0.3414 0.9399 -0.9399 -0.3414 641.5549 -164.6437)" style="fill:#193651;" width="19.394" height="11.636"/>
</g>
<g>
</g>
<g>
</g>
<g>
</g>
<g>
</g>
<g>
</g>
<g>
</g>
<g>
</g>
<g>
</g>
<g>
</g>
<g>
</g>
<g>
</g>
<g>
</g>
<g>
</g>
<g>
</g>
<g>
</g>
</svg>
