<?xml version="1.0" encoding="iso-8859-1"?>
<!-- Generator: Adobe Illustrator 19.0.0, SVG Export Plug-In . SVG Version: 6.00 Build 0)  -->
<svg version="1.1" id="Capa_1" xmlns="http://www.w3.org/2000/svg" xmlns:xlink="http://www.w3.org/1999/xlink" x="0px" y="0px"
	 viewBox="0 0 467.6 467.6" style="enable-background:new 0 0 467.6 467.6;" xml:space="preserve">
<g>
	<g>
		<g>
			<path d="M456,55c-7.2-7.2-16.8-11.6-27.6-11.6H114.8C104,43.4,94,47.8,87.2,55C80,62.2,75.6,71.8,75.6,82.6v124h-48
				c-7.6,0-14.4,3.2-19.6,8c-5.2,5.2-8,12-8,19.6v128c0,7.6,3.2,14.4,8,19.6c5.2,5.2,12,8,19.6,8h14v22c0,3.6,1.2,6.4,3.6,8.8
				c2.4,2.4,5.2,3.6,8.8,3.6c3.2,0,6.4-1.2,8.8-3.6l30.8-30.8h140c15.2,0,27.6-12.4,27.6-27.6v-45.6h67.2l47.6,47.6
				c6.4,6.4,16.4,6.4,22.8,0c2.8-2.8,4.8-6.8,4.8-11.2v-36.4h24.8c10.8,0,20.8-4.4,27.6-11.6c7.2-7.2,11.6-16.8,11.6-27.6V82.6
				C467.6,71.8,463.2,61.8,456,55z M250.8,362.2h-0.4c0,9.2-7.6,17.2-17.2,17.2H91.6c-1.2,0-2.8,0.4-3.6,1.6l-32.4,32.4
				c-0.4,0.4,0,0.4-0.4,0.4c-0.4,0.4-1.2,0-2-0.4c-0.4-0.4-0.4-0.8-0.4-1.2v-27.6c0-2.8-2.4-5.2-5.2-5.2H28c-4.8,0-8.8-2-12-4.8
				c-3.2-3.2-4.8-7.2-4.8-12v-128c0-4.8,2-8.8,4.8-12c3.2-3.2,7.2-4.8,12-4.8h48v60c0,10.8,4.4,20.8,11.6,27.6
				c7.2,7.2,16.8,11.6,27.6,11.6h135.6V362.2z M457.2,277.4h-0.4c0,8-3.2,15.2-8.4,20.4c-5.2,5.2-12.4,8.4-20.4,8.4h-30
				c-2.8,0-5.2,2.4-5.2,5.2V353c0,4.8-6,7.2-9.2,3.6l-49.2-49.2c-1.2-1.2-2.4-1.6-3.6-1.6H256H114.8c-8,0-15.2-3.2-20.4-8.4
				S86,285,86,277v-65.2V82.6c0-8,3.2-15.2,8.4-20.4c5.2-5.2,12.4-8.4,20.4-8.4h313.6c8,0,15.2,3.2,20.4,8.4
				c5.2,5.2,8.4,12.4,8.4,20.4V277.4z"/>
			<path d="M348.4,156.6h-15.2c0-0.4-0.4-0.8-0.4-0.8c0-0.4-0.4-0.8-0.4-0.8l10.8-10.8c2.8-2.8,4.4-6.8,4.4-10.4
				c0-3.6-1.2-7.2-4-10.4l-0.4-0.4l-13.6-13.6c-2.8-2.8-6.8-4.4-10.4-4.4c-3.6,0-7.2,1.2-10.4,4l-0.4,0.4l-10.8,10.8
				c-0.4,0-0.8-0.4-0.8-0.4c-0.4,0-0.8-0.4-0.8-0.4v-15.2c0-4-1.6-8-4.4-10.4c-2.8-2.8-6.4-4.4-10.4-4.4h-18.8c-4,0-8,1.6-10.4,4.4
				c-2.8,2.8-4.4,6.4-4.4,10.4v15.2c-0.4,0-0.8,0.4-0.8,0.4c-0.4,0-0.8,0.4-0.8,0.4l-10.8-10.8c-2.8-2.8-6.8-4.4-10.4-4.4
				s-7.2,1.2-10.4,4l-0.4,0.4l-13.2,13.2c-2.8,2.8-4.4,6.8-4.4,10.4c0,3.6,1.2,7.2,4,10.4l0.4,0.4l10.8,10.8c0,0.4-0.4,0.8-0.4,0.8
				c0,0.4-0.4,0.8-0.4,0.8h-15.2c-4,0-8,1.6-10.4,4.4c-2.8,2.8-4.4,6.4-4.4,10.4v18.8c0,4,1.6,8,4.4,10.4c2.8,2.8,6.4,4.4,10.4,4.4
				h14c0,0.4,0.4,0.8,0.4,0.8c0,0.4,0.4,0.8,0.4,0.8L199.6,217c-2.8,2.8-4.4,6.8-4.4,10.4c0,4,1.6,7.6,4.4,10.4l13.2,13.2
				c2.8,2.8,6.8,4.4,10.4,4.4c4,0,7.6-1.6,10.4-4.4l10.8-10.8c0.4,0,0.8,0.4,0.8,0.4c0.4,0,0.8,0.4,0.8,0.4v16.8c0,4,1.6,8,4.4,10.4
				c2.8,2.8,6.4,4.4,10.4,4.4h18.8c4,0,8-1.6,10.4-4.4c2.8-2.8,4.4-6.4,4.4-10.4v-15.2c0.8-0.4,1.2-0.4,2-0.8l10.8,10.8
				c2.8,2.8,6.8,4.4,10.4,4.4c4,0,7.6-1.6,10.4-4.4l13.2-13.2c2.8-2.8,4.4-6.8,4.4-10.4c0-3.6-1.2-7.2-4-10.4l-0.4-0.4l-10.8-10.8
				c0-0.4,0.4-0.8,0.4-0.8c0-0.4,0.4-0.8,0.4-0.8h15.2c4,0,8-1.6,10.4-4.4c2.8-2.8,4.4-6.4,4.4-10.4v-18.8
				C363.2,163.8,359.2,156.6,348.4,156.6z M352.8,190.6h-0.4c0,1.2-0.4,2.4-1.2,3.2c-0.8,0.8-2,1.2-3.2,1.2h-18.4
				c-2.4,0-4.4,1.6-5.2,4c-0.4,1.2-0.8,2.4-1.2,3.6c-0.4,1.2-1.2,2.4-1.6,4c-1.2,2-0.4,4.4,0.8,6l13.2,13.2c0.8,0.8,1.2,2,1.2,2.8
				c0,1.2-0.4,2-1.2,3.2L322.4,245c-0.8,0.8-2,1.2-3.2,1.2s-2-0.4-3.2-1.2l-13.2-13.2c-1.6-1.6-4.4-2-6.4-0.8
				c-1.2,0.4-2.4,1.2-3.6,1.6c-1.2,0.4-2.4,0.8-4,1.6c-2.4,0.8-3.6,2.8-3.6,5.2v18.4c0,1.2-0.4,2.4-1.2,3.2c-0.8,0.8-2,1.2-3.2,1.2
				H262c-1.2,0-2.4-0.4-3.2-1.2c-0.4-0.8-1.2-2-1.2-3.2V239c0-2.4-1.6-4.4-4-5.2c-1.2-0.4-2.4-0.8-3.6-1.2c-1.2-0.4-2.4-1.2-4-1.6
				c-2-1.2-4.4-0.4-6,0.8L226.8,245c-0.8,0.8-2,1.2-3.2,1.2s-2.4-0.4-3.2-1.2l-13.2-13.2c-0.8-0.8-1.2-2-1.2-3.2
				c0-1.2,0.4-2,1.2-3.2l13.2-13.2c1.6-1.6,2-4.4,0.8-6.4c-0.4-1.2-1.2-2.4-1.6-3.6c-0.4-1.2-0.8-2.4-1.6-4
				c-0.8-2.4-2.8-3.6-5.2-3.6H194c-1.2,0-2.4-0.4-3.2-1.2c-0.8-0.8-1.2-2-1.2-3.2v-18.8c0-1.2,0.4-2.4,1.2-3.2s2-1.2,3.2-1.2h19.6
				c2.4,0,4.4-1.6,5.2-4c0.4-1.2,0.8-2.4,1.2-3.6c0.4-1.2,1.2-2.4,1.6-4c1.2-2,0.4-4.4-0.8-6l-13.2-13.2c-0.8-0.8-1.2-2-1.2-2.8
				c0-1.2,0.4-2.4,1.2-3.2l13.2-13.2c0.8-0.8,2-1.2,2.8-1.2c1.2,0,2,0.4,3.2,1.2l13.2,13.2c1.6,1.6,4.4,2,6.4,0.8
				c1.2-0.4,2.4-1.2,3.6-1.6c1.2-0.4,2.4-0.8,4-1.6c2.4-0.8,3.6-2.8,3.6-5.2v-18.8c0-1.2,0.4-2.4,1.2-3.2c0.8-0.8,2-1.2,3.2-1.2
				h18.8c1.2,0,2.4,0.4,3.2,1.2c0.8,0.8,1.2,2,1.2,3.2v18.8c0,2.4,1.6,4.4,4,5.2c1.2,0.4,2.4,0.8,3.6,1.2c1.2,0.4,2.4,1.2,4,1.6
				c2,1.2,4.4,0.4,6-0.8l13.2-13.2c0.8-0.8,2-1.2,2.8-1.2c1.2,0,2.4,0.4,3.2,1.2l13.2,13.2c0.8,0.8,1.2,2,1.2,2.8
				c0,1.2-0.4,2-1.2,3.2l-13.2,14c-1.6,1.6-2,4.4-0.8,6.4c0.4,1.2,1.2,2.4,1.6,3.6c0.4,1.2,0.8,2.4,1.6,4c0.8,2.4,2.8,3.6,5.2,3.6
				h18.8c3.2,0,4.4,2.4,4.4,4.4V190.6z"/>
			<path d="M299.2,153.4c-7.2-7.2-16.8-11.6-27.6-11.6s-20.8,4.4-27.6,11.6c-7.2,7.2-11.6,16.8-11.6,27.6s4.4,20.8,11.6,27.6
				c7.2,7.2,16.8,11.6,27.6,11.6s20.8-4.4,27.6-11.6c7.2-7.2,11.6-16.8,11.6-27.6S306.4,160.2,299.2,153.4z M291.6,201.4
				c-5.2,5.2-12.4,8.4-20,8.4c-8,0-15.2-3.2-20-8.4c-5.2-5.2-8.4-12.4-8.4-20c0-8,3.2-15.2,8.4-20c5.2-5.2,12.4-8.4,20-8.4
				c8,0,15.2,3.2,20,8.4c5.2,5.2,8.4,12.4,8.4,20C300,189,296.8,196.2,291.6,201.4z"/>
		</g>
	</g>
</g>
<g>
</g>
<g>
</g>
<g>
</g>
<g>
</g>
<g>
</g>
<g>
</g>
<g>
</g>
<g>
</g>
<g>
</g>
<g>
</g>
<g>
</g>
<g>
</g>
<g>
</g>
<g>
</g>
<g>
</g>
</svg>
