<?xml version="1.0" encoding="iso-8859-1"?>
<!-- Generator: Adobe Illustrator 18.1.1, SVG Export Plug-In . SVG Version: 6.00 Build 0)  -->
<svg version="1.1" id="Capa_1" xmlns="http://www.w3.org/2000/svg" xmlns:xlink="http://www.w3.org/1999/xlink" x="0px" y="0px"
	 viewBox="0 0 107.366 107.366" style="enable-background:new 0 0 107.366 107.366;" xml:space="preserve">
<g>
	<path style="fill:#010002;" d="M103.704,26.526v-6.392h-6.778v-8.06l-43.415,8.06H3.661v6.392H0V95.29h107.366V26.526H103.704z
		 M7.24,26.526v-2.813h27.883v2.813v20.067l5.74-4.026l5.755,4.026V26.526v-2.813h5.275v2.813v62.501H7.24V26.526z M73.13,20.135
		l20.217-3.754v3.754v1.789v1.789v2.813v55.1l-37.875,7.032V26.526v-2.813v-0.301l8.02-1.489L73.13,20.135z M100.126,26.526v62.501
		H73.13l23.796-4.413V26.53v-2.813h3.199V26.526z M60.604,72.479l-0.938-3.454l28.309-7.695l0.938,3.454L60.604,72.479z
		 M60.279,82.131l-0.938-3.454l28.309-7.695l0.938,3.454L60.279,82.131z M60.994,35.713l-0.966-3.446l20.578-5.74l7.025-1.958
		l0.544,1.958l0.415,1.489L60.994,35.713z M60.994,44.847L60.028,41.4l27.604-7.695l0.966,3.446L60.994,44.847z M60.937,53.976
		l-0.963-3.446l27.657-7.695l0.963,3.446L60.937,53.976z M60.937,63.113l-0.963-3.446l27.657-7.695l0.963,3.446L60.937,63.113z
		 M42.961,57.158h6.424v2.867h-4.649l-7.523,15.117h-16.81L12.497,59.23l2.566-1.27l7.115,14.323h13.26L42.961,57.158z
		 M35.831,79.225c-0.072,1.503-1.342,2.67-2.852,2.602c-1.51-0.068-2.67-1.349-2.609-2.852c0.072-1.503,1.349-2.67,2.852-2.602
		C34.726,76.441,35.892,77.715,35.831,79.225z M28.008,79.225c-0.064,1.503-1.349,2.67-2.852,2.602
		c-1.503-0.068-2.67-1.349-2.605-2.852c0.075-1.503,1.353-2.67,2.856-2.602C26.917,76.441,28.08,77.715,28.008,79.225z
		 M24.254,65.518l1.084-3.35h6.234l1.117,3.35h1.822h1.832L30.52,49.062h-2.004h-1.993L20.7,65.518h1.782H24.254z M28.47,52.724
		l2.187,6.617h-4.37L28.47,52.724z"/>
</g>
<g>
</g>
<g>
</g>
<g>
</g>
<g>
</g>
<g>
</g>
<g>
</g>
<g>
</g>
<g>
</g>
<g>
</g>
<g>
</g>
<g>
</g>
<g>
</g>
<g>
</g>
<g>
</g>
<g>
</g>
</svg>
