<?xml version="1.0" encoding="iso-8859-1"?>
<!-- Generator: Adobe Illustrator 19.0.0, SVG Export Plug-In . SVG Version: 6.00 Build 0)  -->
<svg version="1.1" id="Capa_1" xmlns="http://www.w3.org/2000/svg" xmlns:xlink="http://www.w3.org/1999/xlink" x="0px" y="0px"
	 viewBox="0 0 456 456" style="enable-background:new 0 0 456 456;" xml:space="preserve">
<g>
	<g>
		<g>
			<path d="M95.152,116.8c2,2,5.6,2,7.6,0l29.2-29.2c2-2,2-5.6,0-7.6c-2-1.6-5.6-1.6-7.6,0.4l-25.2,25.2l-10.4-10.4
				c-2-2-5.6-2-7.6,0s-2,5.6,0,7.6L95.152,116.8z"/>
			<path d="M170.752,222.4h81.6c2.8,0,5.2-2.4,5.2-5.2s-2.4-5.2-5.2-5.2h-81.6c-2.8,0-5.2,2.4-5.2,5.2S167.952,222.4,170.752,222.4z
				"/>
			<path d="M252.752,268h-82c-2.8,0-5.2,2.4-5.2,5.2c0,2.8,2.4,5.2,5.2,5.2h81.6c3.2,0,5.6-2.4,5.6-5.2S255.552,268,252.752,268z"/>
			<path d="M95.152,237.6c2,2,5.6,2,7.6,0l29.2-29.2c2-2,2-5.6,0-7.6c-2-2-5.6-2-7.6,0.4l-25.2,25.2l-10.4-10.4c-2-2-5.6-2-7.6,0
				s-2,5.6,0,7.6L95.152,237.6z"/>
			<path d="M170.752,166.8h81.6c2.8,0,5.2-2.4,5.2-5.2c0-2.8-2.4-5.2-5.2-5.2h-81.6c-2.8,0-5.2,2.4-5.2,5.2
				C165.552,164.4,167.952,166.8,170.752,166.8z"/>
			<path d="M124.352,261.2l-25.2,25.2l-10-10c-2-2-5.6-2-7.6,0s-2,5.6,0,7.6l14,14c2,2,5.6,2,7.6,0l29.2-29.2c2-2,2-5.6,0-7.6
				C129.952,259.2,126.352,259.2,124.352,261.2z"/>
			<path d="M170.752,110.8h81.6c2.8,0,5.2-2.4,5.2-5.2c0-2.8-2.4-5.2-5.2-5.2h-81.6c-2.8,0-5.2,2.4-5.2,5.2
				C165.552,108.4,167.952,110.8,170.752,110.8z"/>
			<path d="M95.152,177.2c2,2,5.6,2,7.6,0l29.2-29.2c2-2,2-5.6,0-7.6c-2-1.6-5.6-1.6-7.6,0.4l-25.2,25.2l-10.4-10.4
				c-2-2-5.6-2-7.6,0s-2,5.6,0,7.6L95.152,177.2z"/>
			<path d="M413.152,340.8h-15.2c0-0.4-0.4-0.8-0.4-0.8c0-0.4-0.4-0.8-0.4-0.8l10.8-10.8c2.8-2.8,4.4-6.8,4.4-10.4
				c0-3.6-1.2-7.2-4-10.4l-0.4-0.4l-13.2-13.2c-2.8-2.8-6.8-4.4-10.4-4.4c-3.6,0-7.2,1.2-10.4,4l-0.4,0.4l-10.8,10.4
				c-0.4,0-0.8-0.4-0.8-0.4c-0.4,0-0.8-0.4-0.8-0.4v-15.2c0-4-1.6-8-4.4-10.4c-1.2-1.2-2.4-2-3.6-2.4v-6V78.4l-75.2-76.8
				c-0.8-1.2-2.4-1.6-4-1.6h-206.4c-10.4,0-20,4.4-26.8,11.2c-6.8,6.8-11.2,16.4-11.2,26.8v302.8c0,20.8,17.2,38,38,38h171.6h5.6
				c0.8,2.4,2,4.8,3.6,6.4c2.8,2.8,6.4,4.4,10.4,4.4h15.6c0,0.4,0.4,0.8,0.4,0.8c0,0.4,0.4,0.8,0.4,0.8l-10.8,10.8
				c-2.8,2.8-4.4,6.8-4.4,10.4c0,4,1.6,7.6,4.4,10.4l13.2,13.2c2.8,2.8,6.8,4.4,10.4,4.4c4,0,7.6-1.6,10.4-4.4l10.8-10.8
				c0.4,0,0.8,0.4,0.8,0.4c0.4,0,0.8,0.4,0.8,0.4v15.2c0,4,1.6,8,4.4,10.4c2.8,2.8,6.4,4.4,10.4,4.4h18.8c4,0,8-1.6,10.4-4.4
				c2.8-2.8,4.4-6.4,4.4-10.4V426c0.8-0.4,1.2-0.4,2-0.8l10.8,10.8c2.8,2.8,6.8,4.4,10.4,4.4c4,0,7.6-1.6,10.4-4.4l13.2-13.2
				c2.8-2.8,4.4-6.8,4.4-10.4c0-3.6-1.2-7.2-4-10.4l-0.4-0.4l-10.8-10.8c0-0.4,0.4-0.8,0.4-0.8c0-0.4,0.4-0.8,0.4-0.8h15.2
				c4,0,8-1.6,10.4-4.4c2.8-2.8,4.4-6.4,4.4-10.4v-18.8C427.952,348,423.952,340.8,413.152,340.8z M279.552,18l27.6,27.6l27.6,27.6
				h-36c-5.2,0-10-2-13.6-5.6c-3.6-3.6-5.6-8.4-5.6-13.6V18z M249.952,344.8c-2.8,2.8-4.4,6.4-4.4,10.4v12.4h-6.4v0.4h-171.6
				c-14.8,0-27.2-12.4-27.2-27.2V37.6c0-7.6,3.2-14.4,8-19.2s11.6-8,19.2-8h201.2V54c0,8,3.2,15.6,8.8,21.2
				c5.2,5.2,12.8,8.8,21.2,8.8h43.6v184.4v5.2h-15.2c-4,0-8,1.6-10.4,4.4c-2.8,2.8-4.4,6.4-4.4,10.4v15.2c-0.4,0-0.8,0.4-0.8,0.4
				c-0.4,0-0.8,0.4-0.8,0.4l-10.8-10.8c-2.8-2.8-6.8-4.4-10.4-4.4c-3.6,0-7.2,1.2-10.4,4l-0.4,0.4l-13.2,13.2
				c-2.8,2.8-4.4,6.8-4.4,10.4c0,3.6,1.2,7.2,4,10.4l0.4,0.4l10.8,10.8c0,0.4-0.4,0.8-0.4,0.8c0,0.4-0.4,0.8-0.4,0.8h-15.2
				C256.352,340.4,252.352,342,249.952,344.8z M417.552,374.4h-0.4c0,1.2-0.4,2.4-1.2,3.2c-0.8,0.8-2,1.2-3.2,1.2h-18.4
				c-2.4,0-4.4,1.6-5.2,4c-0.4,1.2-0.8,2.4-1.2,3.6c-0.4,1.2-1.2,2.4-1.6,4c-1.2,2-0.4,4.4,0.8,6l13.2,13.2c0.8,0.8,1.2,2,1.2,2.8
				c0,1.2-0.4,2-1.2,3.2l-13.2,13.2c-0.8,0.8-2,1.2-3.2,1.2s-2-0.4-3.2-1.2l-13.2-13.2c-1.6-1.6-4.4-2-6.4-0.8
				c-1.2,0.4-2.4,1.2-3.6,1.6c-1.2,0.4-2.4,0.8-4,1.6c-2.4,0.8-3.6,2.8-3.6,5.2V442c0,1.2-0.4,2.4-1.2,3.2c-0.8,0.8-2,1.2-3.2,1.2
				h-18.8c-1.2,0-2.4-0.4-3.2-1.2c-0.8-0.8-1.2-2-1.2-3.2v-18.8c0-2.4-1.6-4.4-4-5.2c-1.2-0.4-2.4-0.8-3.6-1.2
				c-1.2-0.4-2.4-1.2-4-1.6c-2-1.2-4.4-0.4-6,0.8l-13.2,13.2c-0.8,0.8-2,1.2-3.2,1.2s-2.4-0.4-3.2-1.2l-13.2-13.2
				c-0.8-0.8-1.2-2-1.2-3.2s0.4-2,1.2-3.2l13.2-13.2c1.6-1.6,2-4.4,0.8-6.4c-0.4-1.2-1.2-2.4-1.6-3.6c-0.4-1.2-0.8-2.4-1.6-4
				c-0.8-2.4-2.8-3.6-5.2-3.6h-18.8c-1.2,0-2.4-0.4-3.2-1.2c-0.8-0.8-1.2-2-1.2-3.2v-18.8c0-1.2,0.4-2.4,1.2-3.2
				c0.8-0.8,2-1.2,3.2-1.2h19.6c2.4,0,4.4-1.6,5.2-4c0.4-1.2,0.8-2.4,1.2-3.6s1.2-2.4,1.6-4c1.2-2,0.4-4.4-0.8-6l-13.2-13.2
				c-0.8-0.8-1.2-2-1.2-2.8c0-1.2,0.4-2.4,1.2-3.2l13.2-13.2c0.8-0.8,2-1.2,2.8-1.2c1.2,0,2,0.4,3.2,1.2l13.2,13.2
				c1.6,1.6,4.4,2,6.4,0.8c1.2-0.4,2.4-1.2,3.6-1.6c1.2-0.4,2.4-0.8,4-1.6c2.4-0.8,3.6-2.8,3.6-5.2v-18.4c0-1.2,0.4-2.4,1.2-3.2
				c0.8-0.8,2-1.2,3.2-1.2h18.8c1.2,0,2.4,0.4,3.2,1.2c0.8,0.8,1.2,2,1.2,3.2v18.8c0,2.4,1.6,4.4,4,5.2c1.2,0.4,2.4,0.8,3.6,1.2
				c1.2,0.4,2.4,1.2,4,1.6c2,1.2,4.4,0.4,6-0.8l13.2-13.2c0.8-0.8,2-1.2,2.8-1.2c1.2,0,2.4,0.4,3.2,1.2l13.2,13.2
				c0.8,0.8,1.2,2,1.2,2.8c0,1.2-0.4,2-1.2,3.2l-13.2,13.2c-1.6,1.6-2,4.4-0.8,6.4c0.4,1.2,1.2,2.4,1.6,3.6c0.4,1.2,0.8,2.4,1.6,4
				c0.8,2.4,2.8,3.6,5.2,3.6h18.8c3.2,0,4.4,2.4,4.4,4.4V374.4z"/>
			<path d="M363.952,337.6c-7.2-7.2-16.8-11.6-27.6-11.6s-20.8,4.4-27.6,11.6c-7.2,7.2-11.6,16.8-11.6,27.6s4.4,20.8,11.6,27.6
				c7.2,7.2,16.8,11.6,27.6,11.6s20.8-4.4,27.6-11.6c7.2-7.2,11.6-16.8,11.6-27.6C375.552,354.4,371.152,344.4,363.952,337.6z
				 M356.352,385.2c-5.2,5.2-12.4,8.4-20,8.4c-8,0-15.2-3.2-20-8.4c-5.2-5.2-8.4-12.4-8.4-20c0-8,3.2-15.2,8.4-20
				c5.2-5.2,12.4-8.4,20-8.4c8,0,15.2,3.2,20,8.4c5.2,5.2,8.4,12.4,8.4,20C364.752,372.8,361.552,380,356.352,385.2z"/>
		</g>
	</g>
</g>
<g>
</g>
<g>
</g>
<g>
</g>
<g>
</g>
<g>
</g>
<g>
</g>
<g>
</g>
<g>
</g>
<g>
</g>
<g>
</g>
<g>
</g>
<g>
</g>
<g>
</g>
<g>
</g>
<g>
</g>
</svg>
